PathFileType	4	(X/Y/Z)	C:/Users/opensim2020/Desktop/walking_exp_matlab/subject06_walking12_straigt_01.trc																																																																																																																																														
DataRate	CameraRate	NumFrames	NumMarkers	Units	OrigDataRate	OrigDataStartFrame	OrigNumFrames																																																																																																																																										
100	100	7	48	mm	100	893	196																																																																																																																																										
Frame#	Time	LFHD			RFHD			LBHD			RBHD			C7			T10			CLAV			STRN			RBAK			LSHO			LUPA			LELB			LFRM			LWRA			LWRB			LFIN			RSHO			RUPA			RELB			RFRM			RWRA			RWRB			RFIN			LASI			RASI			LPSI			RPSI			LTHI			LKNE			LTIB			LANK			LHEE			LTOE			RTHI			RKNE			RTIB			RANK			RHEE			RTOE			*39			*40			*41			*42			*43			*44			*45			*46			*47		
		X1	Y1	Z1	X2	Y2	Z2	X3	Y3	Z3	X4	Y4	Z4	X5	Y5	Z5	X6	Y6	Z6	X7	Y7	Z7	X8	Y8	Z8	X9	Y9	Z9	X10	Y10	Z10	X11	Y11	Z11	X12	Y12	Z12	X13	Y13	Z13	X14	Y14	Z14	X15	Y15	Z15	X16	Y16	Z16	X17	Y17	Z17	X18	Y18	Z18	X19	Y19	Z19	X20	Y20	Z20	X21	Y21	Z21	X22	Y22	Z22	X23	Y23	Z23	X24	Y24	Z24	X25	Y25	Z25	X26	Y26	Z26	X27	Y27	Z27	X28	Y28	Z28	X29	Y29	Z29	X30	Y30	Z30	X31	Y31	Z31	X32	Y32	Z32	X33	Y33	Z33	X34	Y34	Z34	X35	Y35	Z35	X36	Y36	Z36	X37	Y37	Z37	X38	Y38	Z38	X39	Y39	Z39	X40	Y40	Z40	X41	Y41	Z41	X42	Y42	Z42	X43	Y43	Z43	X44	Y44	Z44	X45	Y45	Z45	X46	Y46	Z46	X47	Y47	Z47	X48	Y48	Z48
																																																																																																																																																	
99	0.98	-1094.24524	1642.03809	-84.45989	-962.60858	1631.73279	-81.3428	-1097.38	1596.80725	51.42866	-968.14691	1591.16626	52.64696	-1036.15222	1434.50024	63.99089	-1019.09717	1103.17383	93.08374	-1033.17297	1355.37158	-45.56885	-1032.33728	1180.72595	-86.77414	-952.37097	1263.96362	138.42741	-1196.23938	1382.46777	14.08058	-1262.6936	1183.22974	49.22703	-1271.56934	1074.02136	76.62711	-1291.16321	922.86517	80.21959	-1244.80713	799.73383	44.54157	-1286.90576	805.91888	102.42006	-1283.69568	718.40601	78.03976	-872.6875	1393.4303	2.18465	-781.0498	1196.10913	37.3734	-766.34552	1074.65173	23.45704	-747.57086	955.78741	4.57501	-778.14282	817.85828	-56.40523	-735.8822	818.64526	-4.49768	-732.20996	745.15674	-44.29062	-1117.03516	947.15552	-95.24782	-899.35663	945.99164	-74.17782	-1104.47864	975.12976	65.23273	-935.69635	976.51514	72.4193	-1189.98389	641.77789	-83.73106	-1161.20154	487.96582	-128.52605	-1157.43555	231.28241	-146.84879	-1114.5022	62.93269	-173.92644	-1067.92407	49.02977	-135.23372	-1108.8606	38.52515	-319.90631	-855.28345	616.25964	38.92489	-873.70227	491.17371	64.34846	-889.4552	298.98727	255.43422	-935.38885	163.23904	381.3103	-980.8548	172.07681	423.1181	-944.84747	35.42574	294.71661	-1037.15479	1687.28076	13.90925	NaN	NaN	NaN	NaN	NaN	NaN	NaN	NaN	NaN	NaN	NaN	NaN	NaN	NaN	NaN	NaN	NaN	NaN	NaN	NaN	NaN	NaN	NaN	NaN
100	0.99	-1095.64868	1644.09143	-95.30986	-963.91974	1633.83228	-92.03788	-1098.93237	1598.86951	40.49669	-969.70013	1593.38843	41.95488	-1037.39258	1436.17712	52.98199	-1019.53613	1105.01184	81.15183	-1034.28296	1357.64758	-57.00405	-1033.39868	1183.18994	-98.98776	-953.47131	1265.31702	126.46347	-1197.23865	1384.71802	2.89853	-1263.91675	1185.03088	35.65418	-1272.94666	1075.60535	61.64004	-1292.86023	924.52234	63.42607	-1246.82117	801.47961	27.14366	-1289.2345	807.43964	84.54748	-1285.96704	719.98218	59.42796	-873.97675	1395.96594	-8.73569	-782.672	1198.6897	26.95583	-768.28607	1077.10999	13.21706	-749.08002	958.00684	-3.63295	-778.62378	818.4566	-61.76754	-736.57788	820.61639	-9.66227	-732.62799	746.16492	-48.02902	-1118.6958	949.86304	-107.20477	-901.24548	947.75128	-87.01196	-1104.95483	977.82251	53.19967	-936.26825	978.14111	59.41795	-1190.13538	644.16528	-95.25397	-1161.47058	489.70203	-138.47849	-1157.75696	232.24481	-152.34384	-1114.35522	63.13249	-175.21497	-1068.23401	49.45856	-135.66081	-1107.36243	37.76855	-320.99603	-855.9787	616.25134	22.0167	-873.34973	490.65082	45.15707	-889.78613	303.47247	239.87538	-935.96619	172.5518	370.04306	-981.65887	183.92137	410.37109	-944.61407	37.81323	292.0155	-1038.75342	1689.39709	3.05411	NaN	NaN	NaN	NaN	NaN	NaN	NaN	NaN	NaN	NaN	NaN	NaN	NaN	NaN	NaN	NaN	NaN	NaN	NaN	NaN	NaN	NaN	NaN	NaN
101	1	-1097.10535	1646.07727	-106.22468	-965.29694	1636.12122	-102.65359	-1100.45386	1600.9386	29.67323	-971.22235	1595.53406	31.2832	-1038.50806	1438.0719	41.84274	-1020.26025	1107.04236	69.35071	-1035.349	1359.89294	-68.41724	-1034.52478	1185.60278	-111.01439	-954.37189	1267.026	114.62035	-1198.15063	1387.12097	-8.44443	-1265.15955	1187.04846	22.1405	-1274.35376	1077.35852	46.46661	-1294.70618	926.41089	46.36887	-1248.66736	803.6593	8.65951	-1291.44434	809.02094	65.94488	-1288.11646	721.75458	40.28008	-875.22168	1398.49622	-19.74444	-783.98053	1201.24695	16.02325	-770.08191	1079.60779	3.26087	-750.45648	960.3183	-11.67869	-779.09729	819.34186	-67.27793	-737.33954	822.79443	-15.04319	-732.94995	747.22113	-51.4329	-1120.52954	952.49811	-118.92123	-903.29773	949.70404	-99.5572	-1105.52722	980.23639	41.29734	-936.94989	979.78992	46.82331	-1190.18286	646.18353	-106.09045	-1161.65625	491.01245	-147.38635	-1157.29395	233.37389	-157.19051	-1114.08972	63.2841	-176.2052	-1068.4939	49.79225	-135.89073	-1105.88208	37.33051	-321.65656	-856.62897	616.35742	4.65515	-872.85187	490.18933	24.82399	-890.09296	307.76575	222.57198	-936.67279	182.12524	356.54184	-982.90289	195.80602	395.57483	-944.60327	40.75226	288.0965	-1040.38013	1691.62976	-7.72799	NaN	NaN	NaN	NaN	NaN	NaN	NaN	NaN	NaN	NaN	NaN	NaN	NaN	NaN	NaN	NaN	NaN	NaN	NaN	NaN	NaN	NaN	NaN	NaN
102	1.01	-1098.47595	1648.10913	-117.06249	-966.60022	1638.37964	-113.42987	-1101.86096	1602.84131	18.72854	-972.62512	1597.79517	20.49427	-1039.61401	1440.01062	30.39949	-1021.26855	1109.19116	57.75204	-1036.28748	1362.12866	-79.88663	-1035.64941	1187.88342	-122.86925	-955.11908	1269.03284	102.94917	-1199.04407	1389.59204	-20.10037	-1266.48132	1189.18274	8.47455	-1276.03223	1079.16077	31.04869	-1296.57385	928.37567	29.12437	-1250.58337	805.96136	-9.99702	-1293.64319	810.77325	46.98067	-1290.29797	723.7243	20.41153	-876.41437	1400.84351	-31.04298	-785.40143	1203.77759	5.48405	-771.67676	1082.0022	-6.58171	-751.71906	962.60486	-19.67541	-779.56	820.28046	-72.88026	-737.92731	825.12067	-20.38632	-733.4823	748.3277	-55.1102	-1122.40869	954.96643	-130.45529	-905.3252	951.86285	-111.92363	-1106.33716	982.36615	29.66905	-937.66528	981.32001	35.04419	-1190.69458	647.75403	-116.53225	-1161.80835	491.7774	-155.3632	-1157.09802	233.96342	-160.9899	-1113.74512	63.38614	-176.97676	-1068.62524	50.05941	-136.1326	-1105.01599	37.11934	-322.18094	-857.02313	616.5564	-13.21811	-872.41193	489.96436	3.90838	-890.64685	311.84192	203.68654	-937.68842	191.06004	341.36444	-984.25403	207.32535	378.74283	-944.58044	43.43233	283.48688	-1041.89429	1693.75708	-18.53575	NaN	NaN	NaN	NaN	NaN	NaN	NaN	NaN	NaN	NaN	NaN	NaN	NaN	NaN	NaN	NaN	NaN	NaN	NaN	NaN	NaN	NaN	NaN	NaN
103	1.02	-1099.68896	1650.00476	-127.87946	-967.91376	1640.59692	-124.1121	-1103.25525	1604.66736	7.73188	-973.98468	1599.81409	9.6732	-1040.63721	1441.97534	18.90753	-1022.55798	1111.31104	46.19061	-1037.25159	1364.16919	-91.29631	-1036.80713	1189.94641	-134.52357	-955.96838	1271.20239	91.35342	-1199.88123	1392.03271	-31.81507	-1268.0885	1191.34131	-5.23304	-1277.57556	1081.13989	15.98635	-1298.49048	930.40002	11.65615	-1252.56543	808.38501	-28.88204	-1295.81323	812.53168	27.72816	-1292.448	725.83472	0.08418	-877.53577	1402.9436	-42.44288	-786.51996	1206.10034	-5.3706	-773.09637	1084.20935	-16.22471	-752.87726	964.65515	-27.56005	-779.96735	821.31616	-78.62979	-738.83521	826.97009	-25.97396	-734.09387	749.46545	-58.85546	-1124.19421	957.09784	-141.6468	-907.13654	953.90961	-123.75334	-1107.30261	984.21466	18.20005	-938.91687	982.67218	23.1643	-1190.53406	648.51636	-124.88479	-1162.16931	492.0993	-162.40897	-1156.59253	234.25137	-164.42648	-1113.28723	63.36198	-177.42097	-1068.47021	50.2603	-136.25259	-1104.43201	36.97672	-322.57489	-857.25665	616.90607	-31.49771	-872.05573	489.9007	-17.64667	-890.93921	315.63525	183.47224	-938.64203	199.53745	324.38214	-985.40485	218.04379	359.94308	-944.73492	45.78486	277.20383	-1043.53528	1695.47461	-29.08574	NaN	NaN	NaN	NaN	NaN	NaN	NaN	NaN	NaN	NaN	NaN	NaN	NaN	NaN	NaN	NaN	NaN	NaN	NaN	NaN	NaN	NaN	NaN	NaN
104	1.03	-1100.97473	1651.86072	-138.66098	-969.1413	1642.77527	-134.90706	-1104.37292	1606.05664	-3.10817	-975.13745	1601.51843	-1.03739	-1041.59021	1443.84338	7.50982	-1023.98468	1113.3717	35.03939	-1038.1615	1366.05237	-102.79169	-1037.98511	1191.8374	-146.13562	-956.87097	1273.37036	80.09023	-1200.67163	1394.38013	-43.73067	-1269.40466	1193.44922	-19.14918	-1279.43713	1083.05127	0.62107	-1300.47217	932.35144	-6.08696	-1254.40735	810.98438	-48.59558	-1297.90698	814.28876	8.09115	-1294.52405	727.96777	-20.76897	-878.59467	1404.74622	-53.98646	-787.33344	1208.11194	-16.34938	-774.25165	1086.20471	-25.77719	-753.82947	966.49261	-35.41961	-780.2984	822.18884	-84.44978	-739.32123	828.90979	-31.43865	-734.8363	750.42206	-62.94977	-1125.8623	958.91107	-152.80038	-908.65613	955.98047	-135.27504	-1108.40369	985.77686	7.1614	-940.29926	983.92224	11.37575	-1190.90503	649.17938	-133.36298	-1162.78137	492.10214	-168.60809	-1155.92468	234.42078	-166.97548	-1112.92798	63.46007	-177.80336	-1068.16553	50.34853	-136.40785	-1103.94946	36.95647	-322.95474	-857.66058	617.34515	-49.95312	-872.06842	490.09869	-39.49391	-891.10583	319.20697	162.29948	-939.40753	206.67761	305.55472	-986.63788	227.64986	339.34741	-945.16034	48.96812	269.30716	-1044.83069	1697.40186	-39.84065	NaN	NaN	NaN	NaN	NaN	NaN	NaN	NaN	NaN	NaN	NaN	NaN	NaN	NaN	NaN	NaN	NaN	NaN	NaN	NaN	NaN	NaN	NaN	NaN
105	1.04	-1101.96985	1653.61365	-149.38379	-970.13977	1644.78918	-145.55991	-1105.40894	1607.32874	-13.99025	-976.18488	1603.0426	-12.01096	-1042.39771	1445.54077	-3.92088	-1025.61633	1115.17822	23.77664	-1038.98096	1367.82727	-114.15341	-1039.13782	1193.48962	-157.47046	-957.95313	1275.23145	68.66644	-1201.4884	1396.59753	-55.66885	-1270.91748	1195.51929	-33.11501	-1281.14026	1084.77246	-15.06139	-1302.41626	934.28882	-24.04381	-1256.3197	813.5824	-68.40674	-1300.06299	816.05811	-11.84646	-1296.62756	730.18994	-42.18378	-879.53802	1406.23462	-65.47118	-788.27942	1209.85303	-26.90727	-775.29968	1087.8894	-35.26042	-754.62457	968.09613	-43.29643	-780.41992	823.04736	-90.62789	-739.90942	830.51282	-37.38902	-735.58856	751.21021	-67.39505	-1127.24976	960.29803	-163.78981	-909.94165	957.94342	-146.43076	-1109.56055	987.18488	-4.34579	-941.38336	985.23779	0.7286	-1191.42407	649.5719	-141.30576	-1163.58972	492.01843	-174.2885	-1155.5177	234.47211	-168.80081	-1112.50195	63.4635	-178.08388	-1067.93042	50.38084	-136.63857	-1103.66284	36.92694	-323.21527	-858.18134	617.92236	-68.25817	-872.48212	490.46463	-61.40266	-891.21967	322.21298	140.19965	-940.3205	212.72871	285.8288	-987.9928	236.02458	317.42587	-945.72321	52.36545	258.84	-1046.15527	1698.76892	-50.26529	NaN	NaN	NaN	NaN	NaN	NaN	NaN	NaN	NaN	NaN	NaN	NaN	NaN	NaN	NaN	NaN	NaN	NaN	NaN	NaN	NaN	NaN	NaN	NaN
